<svg width="132" height="20" viewBox="0 0 132 20" fill="none" xmlns="http://www.w3.org/2000/svg">
<path d="M31.186 16.216C30.238 16.216 29.362 16.048 28.558 15.712C27.754 15.364 27.058 14.878 26.47 14.254C25.882 13.63 25.42 12.898 25.084 12.058C24.76 11.218 24.598 10.3 24.598 9.304C24.598 8.296 24.76 7.372 25.084 6.532C25.408 5.692 25.864 4.96 26.452 4.336C27.04 3.712 27.736 3.232 28.54 2.896C29.344 2.548 30.22 2.374 31.168 2.374C32.092 2.374 32.92 2.536 33.652 2.86C34.396 3.184 35.02 3.604 35.524 4.12C36.04 4.636 36.406 5.188 36.622 5.776L35.038 6.55C34.726 5.77 34.24 5.152 33.58 4.696C32.92 4.24 32.116 4.012 31.168 4.012C30.232 4.012 29.398 4.234 28.666 4.678C27.946 5.122 27.382 5.74 26.974 6.532C26.566 7.324 26.362 8.248 26.362 9.304C26.362 10.348 26.566 11.266 26.974 12.058C27.394 12.85 27.964 13.468 28.684 13.912C29.416 14.356 30.25 14.578 31.186 14.578C32.002 14.578 32.74 14.404 33.4 14.056C34.06 13.708 34.582 13.228 34.966 12.616C35.35 12.004 35.542 11.296 35.542 10.492V9.664L36.352 10.42H31.168V8.89H37.324V10.078C37.324 11.014 37.162 11.86 36.838 12.616C36.514 13.372 36.07 14.02 35.506 14.56C34.942 15.088 34.288 15.496 33.544 15.784C32.8 16.072 32.014 16.216 31.186 16.216ZM43.9729 16.216C43.0369 16.216 42.2029 15.994 41.4709 15.55C40.7389 15.106 40.1629 14.5 39.7429 13.732C39.3229 12.952 39.1129 12.082 39.1129 11.122C39.1129 10.15 39.3169 9.286 39.7249 8.53C40.1449 7.774 40.7089 7.18 41.4169 6.748C42.1369 6.304 42.9409 6.082 43.8289 6.082C44.5489 6.082 45.1849 6.214 45.7369 6.478C46.3009 6.73 46.7749 7.078 47.1589 7.522C47.5549 7.954 47.8549 8.452 48.0589 9.016C48.2749 9.568 48.3829 10.144 48.3829 10.744C48.3829 10.876 48.3709 11.026 48.3469 11.194C48.3349 11.35 48.3169 11.5 48.2929 11.644H40.3369V10.204H47.3209L46.5289 10.852C46.6369 10.228 46.5769 9.67 46.3489 9.178C46.1209 8.686 45.7849 8.296 45.3409 8.008C44.8969 7.72 44.3929 7.576 43.8289 7.576C43.2649 7.576 42.7489 7.72 42.2809 8.008C41.8129 8.296 41.4469 8.71 41.1829 9.25C40.9309 9.778 40.8289 10.408 40.8769 11.14C40.8289 11.848 40.9369 12.472 41.2009 13.012C41.4769 13.54 41.8609 13.954 42.3529 14.254C42.8569 14.542 43.4029 14.686 43.9909 14.686C44.6389 14.686 45.1849 14.536 45.6289 14.236C46.0729 13.936 46.4329 13.552 46.7089 13.084L48.1129 13.804C47.9209 14.248 47.6209 14.656 47.2129 15.028C46.8169 15.388 46.3429 15.676 45.7909 15.892C45.2509 16.108 44.6449 16.216 43.9729 16.216ZM50.5655 16V6.298H52.2035V8.278L51.9695 7.972C52.2095 7.36 52.5935 6.892 53.1215 6.568C53.6495 6.244 54.2435 6.082 54.9035 6.082C55.6595 6.082 56.3375 6.292 56.9375 6.712C57.5495 7.132 57.9695 7.684 58.1975 8.368L57.7295 8.386C57.9815 7.63 58.4075 7.06 59.0075 6.676C59.6075 6.28 60.2735 6.082 61.0055 6.082C61.6775 6.082 62.2835 6.238 62.8235 6.55C63.3755 6.862 63.8135 7.294 64.1375 7.846C64.4615 8.398 64.6235 9.022 64.6235 9.718V16H62.9315V10.258C62.9315 9.718 62.8355 9.262 62.6435 8.89C62.4515 8.518 62.1875 8.23 61.8515 8.026C61.5275 7.81 61.1435 7.702 60.6995 7.702C60.2675 7.702 59.8775 7.81 59.5295 8.026C59.1935 8.23 58.9235 8.524 58.7195 8.908C58.5275 9.28 58.4315 9.73 58.4315 10.258V16H56.7395V10.258C56.7395 9.718 56.6435 9.262 56.4515 8.89C56.2595 8.518 55.9955 8.23 55.6595 8.026C55.3355 7.81 54.9515 7.702 54.5075 7.702C54.0755 7.702 53.6855 7.81 53.3375 8.026C53.0015 8.23 52.7315 8.524 52.5275 8.908C52.3355 9.28 52.2395 9.73 52.2395 10.258V16H50.5655ZM70.4751 16.216C69.5031 16.216 68.6571 15.976 67.9371 15.496C67.2171 15.016 66.7071 14.368 66.4071 13.552L67.7391 12.904C68.0151 13.48 68.3931 13.936 68.8731 14.272C69.3531 14.608 69.8871 14.776 70.4751 14.776C71.0031 14.776 71.4411 14.65 71.7891 14.398C72.1371 14.146 72.3111 13.816 72.3111 13.408C72.3111 13.12 72.2271 12.892 72.0591 12.724C71.9031 12.544 71.7111 12.406 71.4831 12.31C71.2551 12.202 71.0451 12.124 70.8531 12.076L69.3951 11.662C68.5191 11.41 67.8771 11.05 67.4691 10.582C67.0731 10.114 66.8751 9.568 66.8751 8.944C66.8751 8.368 67.0191 7.87 67.3071 7.45C67.6071 7.018 68.0091 6.682 68.5131 6.442C69.0291 6.202 69.6051 6.082 70.2411 6.082C71.0931 6.082 71.8551 6.298 72.5271 6.73C73.2111 7.162 73.6971 7.768 73.9851 8.548L72.6171 9.178C72.4011 8.674 72.0771 8.278 71.6451 7.99C71.2131 7.69 70.7271 7.54 70.1871 7.54C69.6951 7.54 69.3051 7.666 69.0171 7.918C68.7291 8.158 68.5851 8.464 68.5851 8.836C68.5851 9.112 68.6571 9.34 68.8011 9.52C68.9451 9.688 69.1191 9.82 69.3231 9.916C69.5271 10 69.7251 10.072 69.9171 10.132L71.5011 10.6C72.2931 10.828 72.9051 11.182 73.3371 11.662C73.7811 12.142 74.0031 12.718 74.0031 13.39C74.0031 13.93 73.8531 14.416 73.5531 14.848C73.2531 15.28 72.8391 15.616 72.3111 15.856C71.7831 16.096 71.1711 16.216 70.4751 16.216Z" fill="#CCCCCC"/>
<path d="M11.5528 6.22361L11.6273 6.37268L11.7764 6.44721L16.882 9L11.7764 11.5528L11.6273 11.6273L11.5528 11.7764L9 16.882L6.44721 11.7764L6.37268 11.6273L6.22361 11.5528L1.11803 9L6.22361 6.44721L6.37268 6.37268L6.44721 6.22361L9 1.11803L11.5528 6.22361Z" fill="#CCCCCC" stroke="#CCCCCC"/>
<rect x="83.6406" y="1.5" width="47" height="18" rx="9" fill="#0F1011"/>
<path d="M94.8876 14V7.295H97.7046C98.1066 7.295 98.4516 7.367 98.7396 7.511C99.0336 7.655 99.2586 7.859 99.4146 8.123C99.5766 8.381 99.6576 8.69 99.6576 9.05C99.6576 9.38 99.5706 9.68 99.3966 9.95C99.2286 10.214 98.9796 10.421 98.6496 10.571L98.6406 10.238C98.9286 10.346 99.1656 10.49 99.3516 10.67C99.5436 10.844 99.6876 11.048 99.7836 11.282C99.8796 11.51 99.9276 11.753 99.9276 12.011C99.9276 12.629 99.7296 13.115 99.3336 13.469C98.9376 13.823 98.3976 14 97.7136 14H94.8876ZM95.7696 13.19H97.7496C98.1396 13.19 98.4516 13.085 98.6856 12.875C98.9196 12.665 99.0366 12.38 99.0366 12.02C99.0366 11.66 98.9196 11.375 98.6856 11.165C98.4516 10.949 98.1396 10.841 97.7496 10.841H95.7696V13.19ZM95.7696 10.049H97.6866C98.0106 10.049 98.2716 9.956 98.4696 9.77C98.6676 9.578 98.7666 9.335 98.7666 9.041C98.7666 8.735 98.6676 8.501 98.4696 8.339C98.2716 8.177 98.0106 8.096 97.6866 8.096H95.7696V10.049ZM102.199 14V7.295H106.564V8.105H103.081V10.229H106.384V11.039H103.081V13.19H106.564V14H102.199ZM109.907 14V8.105H108.089V7.295H112.589V8.105H110.798V14H109.907ZM113.423 14L115.826 7.295H116.87L119.273 14H118.328L117.779 12.425H114.917L114.368 14H113.423ZM115.196 11.615H117.5L116.222 7.934H116.474L115.196 11.615Z" fill="#EEECE7" fill-opacity="0.65"/>
<rect x="83.6406" y="1.5" width="47" height="18" rx="9" stroke="#27292B" stroke-dasharray="4 4"/>
</svg>
